<?xml version="1.0" standalone="no"?>
<!DOCTYPE svg PUBLIC "-//W3C//DTD SVG 20010904//EN"
 "http://www.w3.org/TR/2001/REC-SVG-20010904/DTD/svg10.dtd">
<svg version="1.0" xmlns="http://www.w3.org/2000/svg"
 width="640.000000pt" height="640.000000pt" viewBox="0 0 640.000000 640.000000"
 preserveAspectRatio="xMidYMid meet">
<metadata>
Created by potrace 1.14, written by Peter Selinger 2001-2017
</metadata>
<g transform="translate(0.000000,640.000000) scale(0.100000,-0.100000)"
fill="#000000" stroke="none">
<path d="M2190 6260 l0 -140 -140 0 -140 0 0 -1320 0 -1320 -140 0 -140 0 0
138 0 137 -450 -3 -450 -2 0 -415 0 -415 140 0 140 0 0 -137 0 -138 140 3 140
3 0 135 0 134 -140 0 -140 0 0 280 0 280 310 0 310 0 0 -140 0 -140 140 0 140
0 2 -416 3 -415 138 -2 137 -2 0 1878 0 1877 280 0 280 0 0 -1320 0 -1320 140
0 140 0 0 590 0 590 310 0 310 0 0 -590 0 -590 140 0 140 0 0 450 0 450 280 0
280 0 0 -590 0 -590 140 0 140 0 0 450 0 450 170 0 170 0 0 -170 0 -170 140 0
140 0 0 170 0 170 -140 0 -140 0 0 140 0 140 -310 0 -310 0 0 140 0 140 -420
0 -420 0 0 140 0 140 -315 0 -315 0 2 590 3 590 -137 0 -138 0 0 140 0 140
-280 0 -280 0 0 -140z"/>
<path d="M5390 2745 l0 -1005 -140 0 -140 0 0 -415 0 -415 140 0 140 0 0 415
0 415 140 0 140 0 0 1005 0 1005 -140 0 -140 0 0 -1005z"/>
<path d="M1290 2330 l0 -310 170 0 169 0 3 310 3 310 -172 0 -173 0 0 -310z"/>
<path d="M1640 1740 l0 -280 135 0 135 0 0 -275 0 -275 140 0 140 0 0 275 0
275 -140 0 -140 0 0 280 0 280 -135 0 -135 0 0 -280z"/>
<path d="M2190 450 l0 -450 1460 0 1460 0 0 450 0 450 -170 0 -170 0 0 -310 0
-310 -1150 0 -1150 0 0 310 0 310 -140 0 -140 0 0 -450z"/>
</g>
</svg>
